<svg width="18" height="23" viewBox="0 0 18 23" fill="none" xmlns="http://www.w3.org/2000/svg">
<path id="Vector - 0" fill-rule="evenodd" clip-rule="evenodd" d="M12 3.75C12 2.09315 10.6569 0.75 9 0.75C7.34315 0.75 6 2.09315 6 3.75C6 5.40685 7.34315 6.75 9 6.75C10.6569 6.75 12 5.40685 12 3.75ZM9 5.25C8.17157 5.25 7.5 4.57843 7.5 3.75C7.5 2.92157 8.17157 2.25 9 2.25C9.82843 2.25 10.5 2.92157 10.5 3.75C10.5 4.57843 9.82843 5.25 9 5.25ZM17.4694 12.5672L13.2347 7.76531C12.6651 7.1197 11.8456 6.74991 10.9847 6.75H7.01531C6.15437 6.74991 5.33488 7.1197 4.76531 7.76531L0.530625 12.5672C-0.18487 13.299 -0.181393 14.4693 0.538437 15.1968C1.25827 15.9243 2.42849 15.9402 3.16781 15.2325L4.69594 14.0063L3.14531 19.9013C2.71764 20.8449 3.1359 21.9565 4.07953 22.3842C5.02316 22.8119 6.13482 22.3936 6.5625 21.45L9 17.2434L11.4375 21.45C11.8836 22.3605 12.9727 22.7515 13.896 22.3326C14.8193 21.9136 15.2424 20.8366 14.8509 19.9013L13.3041 14.0063L14.8322 15.2325C15.5715 15.9402 16.7417 15.9243 17.4616 15.1968C18.1814 14.4693 18.1849 13.299 17.4694 12.5672ZM16.3903 14.1394C16.32 14.2098 16.2245 14.2494 16.125 14.2494C16.0255 14.2494 15.93 14.2098 15.8597 14.1394C15.84 14.1206 15.8203 14.1019 15.7987 14.085L12.4688 11.415C12.2167 11.2138 11.8643 11.1963 11.5935 11.3714C11.3228 11.5465 11.1943 11.8751 11.2744 12.1875L13.4194 20.3438C13.4304 20.3872 13.4455 20.4296 13.4644 20.4703C13.5233 20.5921 13.512 20.7361 13.435 20.8473C13.3579 20.9584 13.227 21.0195 13.0923 21.007C12.9576 20.9946 12.8401 20.9106 12.7847 20.7872C12.7755 20.7669 12.7652 20.7472 12.7537 20.7281L9.64875 15.375C9.51458 15.1437 9.2674 15.0013 9 15.0013C8.7326 15.0013 8.48542 15.1437 8.35125 15.375L5.25 20.7234C5.23857 20.7425 5.22825 20.7622 5.21906 20.7825C5.177 20.8727 5.10078 20.9426 5.00719 20.9766C4.86457 21.0288 4.7045 20.9899 4.60181 20.878C4.49912 20.766 4.47409 20.6032 4.53844 20.4656C4.55733 20.4249 4.57239 20.3826 4.58344 20.3391L6.72563 12.1875C6.80575 11.8751 6.67723 11.5465 6.40646 11.3714C6.13569 11.1963 5.78327 11.2138 5.53125 11.415L2.20125 14.085C2.17969 14.1019 2.16 14.1206 2.14031 14.1394C2.04654 14.2382 1.90652 14.2785 1.77458 14.2444C1.64263 14.2104 1.53953 14.1075 1.50527 13.9756C1.47101 13.8437 1.51098 13.7036 1.60969 13.6097C1.62094 13.5984 1.63125 13.5872 1.64156 13.575L5.89031 8.75719C6.17518 8.43456 6.58491 8.24983 7.01531 8.25H10.9847C11.4151 8.24983 11.8248 8.43456 12.1097 8.75719L16.3584 13.575C16.3687 13.5872 16.3791 13.5984 16.3903 13.6097C16.5363 13.7561 16.5363 13.993 16.3903 14.1394Z" fill="#121417"/>
</svg>
